# xmcd CD database file
#
# Track frame offsets:
#	150
#	20178
#	43271
#	57239
#	82531
#	98816
#	120590
#	134971
#	147225
#	156454
#	168693
#	198232
#	211028
#
# Disc length: 2870 seconds
#
# Revision: 0
# Processed by: cddbd v1.5.1PL2 Copyright (c) Steve Scherf et al.
# Submitted via: CDex 1.51
#
DISCID=bc0b340d
DTITLE=Bob Lucas - Live
DYEAR=1900
DGENRE=Jazz
TTITLE0=Midnight Blues
TTITLE1=The Lights of Los Angeles
TTITLE2=Outside Looking In
TTITLE3=MichaelBrook Bosa Nova
TTITLE4=No Man
TTITLE5=Chuckanut Drive
TTITLE6=A Little Longer
TTITLE7=Cowtown Blues
TTITLE8=Elegant Jazz
TTITLE9=The Journey
TTITLE10=Shades of Shader
TTITLE11=The Lights of Los Angeles (vocal)
TTITLE12=Sonata Enchilada
EXTD=
EXTT0=
EXTT1=
EXTT2=
EXTT3=
EXTT4=
EXTT5=
EXTT6=
EXTT7=
EXTT8=
EXTT9=
EXTT10=
EXTT11=
EXTT12=
PLAYORDER=
